<svg xmlns="http://www.w3.org/2000/svg" xml:space="preserve" width="213.616" height="208.25"><path fill="#F48D59" d="M162.989 48.248c13.482 12.457 17.332 32.902 6.272 48.83 6.632 2.118 16.936-1.078 33.019-10.242.496 9.239-5.53 16.462-14.674 18.278-24.303 4.826-47.222 12.989-66.163 29.659-5.558 4.892-10.231 10.79-15.325 16.243-5.101-5.333-9.831-11.188-15.458-15.995-18.409-15.725-40.353-24.139-63.598-29.677-12.958-3.087-15.041-5.451-17.533-19.38 9.444 6.806 19.279 11.867 32.255 11.418-9.363-17.872-6.491-33.516 6.915-47.507-.425 1.955-.862 3.907-1.273 5.864-2.345 11.171 3.347 19.722 14.489 21.775 11.069 2.04 15.595 8.767 13.219 19.546-.316 1.436-.311 2.943-.428 4.155 3.893 4.468 9.429 4.6 13.674.607 6.717-6.318 7.223-17.227 1.186-25.564-10.469-14.458-10.557-20.475-.8-35.082 6.003-8.988 11.834-18.091 18.011-27.553 1.199 2.902 2.103 6.43 3.968 9.34 4.467 6.971 9.4 13.642 14.121 20.451 7.478 10.786 7.555 18.123.034 28.788-3.419 4.849-5.522 9.926-4.624 15.975.78 5.257 8.412 10.047 13.324 8.021 4.294-1.771 4.897-5.296 3.942-9.559-1.008-4.502-1.622-9.118 4.685-11.074 4.802 4.137 10.087 4.752 15.242.581 6.227-5.039 8.272-11.871 7.34-19.63-.335-2.792-1.182-5.522-1.796-8.28z"/><path fill="#072537" d="M111.545 168.988c16.472-31.569 44.479-44.363 77.117-51.425l-5.642 14.907 23.404-4.876-9.662 20.618zM100.215 169.093l-84.058-20.532-8.648-20.885 21.783 5.04-4.376-14.351c25.961.913 70.61 30.998 75.299 50.728M73.585 172.784l6.796 27.535-60.779-15.045L0 154.716zM132.516 200.027l6.751-27.333 74.349-18.621-20.664 30.997c-19.253 4.766-39.212 9.705-60.436 14.957M128.478 175.233c-2.435 9.798-4.217 17.96-6.63 25.931-.554 1.83-3.1 3.935-5.036 4.302-5.427 1.031-11.062 1.924-16.524 1.547-5.624-.388-9.564-3.565-10.565-9.987-1.061-6.804-3.08-13.459-4.99-21.481 14.622 7.461 28.631 7.25 43.745-.312"/><path fill="#5FDDAC" d="M41.83 1.124c2.193 4.172 4.472 8.658 6.89 13.067 3.189 5.817 2.697 12.477-1.467 15.476-3.751 2.702-7.698 3.673-11.817.506-4.37-3.36-3.858-7.647-2.471-12.133.194-.627.523-1.218.832-1.802 2.768-5.22 5.545-10.435 8.033-15.114"/><path fill="#E5483C" d="M170.792 1.882c3.253 6.07 6.656 10.903 8.397 16.275.945 2.916.022 7.423-1.785 10.003-2.421 3.457-7.475 4.269-11.172 1.841-1.141-.749-3.587-3.136-4.096-4.677-.755-2.284-.084-10.484 1.18-12.916 1.879-3.617 4.546-5.959 7.476-10.526"/><path fill="#F48D59" d="m163.016 48.24-.125-.099.099.109z"/></svg>